# xmcd CD database file
#
# Track frame offsets:
#	150
#	12780
#	31881
#	48112
#	65260
#	78744
#	96734
#	110482
#
# Disc length: 1758 seconds
#
# Revision: 0
# Processed by: cddbd v1.5.2PL0 Copyright (c) Steve Scherf et al.
# Submitted via: CDex 1.70beta2
#
DISCID=6006dc08
DTITLE=Sam Payne - Shades Of Blue
DYEAR=2005
DGENRE=Blues
TTITLE0=Aint Bothered by You
TTITLE1=Carry On
TTITLE2=Aint Taking This
TTITLE3=Too Long Coming
TTITLE4=Broke
TTITLE5=Goodbye
TTITLE6=I'm in Ecstacy
TTITLE7=Feeling Good Today
EXTD=YEAR: 2005
EXTT0=
EXTT1=
EXTT2=
EXTT3=
EXTT4=
EXTT5=
EXTT6=
EXTT7=
PLAYORDER=
